<mxfile host="app.diagrams.net" modified="2024-05-20T21:56:41.491Z" agent="Mozilla/5.0 (Windows NT 10.0; Win64; x64) AppleWebKit/537.36 (KHTML, like Gecko) Chrome/124.0.0.0 Safari/537.36" etag="HI7XmjRiTxxUyx1NOpPJ" version="24.4.4" type="device">
  <diagram name="Page-1" id="0783ab3e-0a74-02c8-0abd-f7b4e66b4bec">
    <mxGraphModel dx="2333" dy="1178" grid="1" gridSize="10" guides="1" tooltips="1" connect="1" arrows="1" fold="1" page="1" pageScale="1" pageWidth="827" pageHeight="1169" background="none" math="0" shadow="0">
      <root>
        <mxCell id="0" />
        <mxCell id="1" parent="0" />
        <mxCell id="1c1d494c118603dd-1" value="دیاگرام فعالیت - مورد کاربری شماره 6 - پیگیری سفارش" style="swimlane;html=1;childLayout=stackLayout;startSize=20;rounded=0;shadow=0;comic=0;labelBackgroundColor=none;strokeWidth=1;fontFamily=Verdana;fontSize=17;align=center;" parent="1" vertex="1">
          <mxGeometry x="14" y="20" width="800" height="1100" as="geometry" />
        </mxCell>
        <mxCell id="bYX_rBt1W14Q4xHbeTwR-1" value="مشتری" style="swimlane;startSize=20;whiteSpace=wrap;html=1;fontSize=17;" parent="1c1d494c118603dd-1" vertex="1">
          <mxGeometry y="20" width="260" height="1080" as="geometry" />
        </mxCell>
        <mxCell id="_GKaaEnPmd_whFGMj8a_-45" style="edgeStyle=orthogonalEdgeStyle;rounded=0;orthogonalLoop=1;jettySize=auto;html=1;entryX=0.5;entryY=0;entryDx=0;entryDy=0;" edge="1" parent="bYX_rBt1W14Q4xHbeTwR-1" source="bYX_rBt1W14Q4xHbeTwR-68" target="_GKaaEnPmd_whFGMj8a_-44">
          <mxGeometry relative="1" as="geometry" />
        </mxCell>
        <mxCell id="bYX_rBt1W14Q4xHbeTwR-68" value="" style="ellipse;fillColor=strokeColor;html=1;" parent="bYX_rBt1W14Q4xHbeTwR-1" vertex="1">
          <mxGeometry x="103" y="30" width="54" height="50" as="geometry" />
        </mxCell>
        <mxCell id="_GKaaEnPmd_whFGMj8a_-44" value="&lt;font style=&quot;font-size: 21px;&quot;&gt;پیگیری سفارش&lt;/font&gt;" style="html=1;align=center;verticalAlign=middle;rounded=1;absoluteArcSize=1;arcSize=10;dashed=0;whiteSpace=wrap;" vertex="1" parent="bYX_rBt1W14Q4xHbeTwR-1">
          <mxGeometry x="60" y="120" width="140" height="70" as="geometry" />
        </mxCell>
        <mxCell id="_GKaaEnPmd_whFGMj8a_-48" value="&lt;font style=&quot;font-size: 21px;&quot;&gt;وارد کردن شناسه سفارش&lt;/font&gt;" style="html=1;align=center;verticalAlign=middle;rounded=1;absoluteArcSize=1;arcSize=10;dashed=0;whiteSpace=wrap;" vertex="1" parent="bYX_rBt1W14Q4xHbeTwR-1">
          <mxGeometry x="60" y="240" width="140" height="70" as="geometry" />
        </mxCell>
        <mxCell id="bYX_rBt1W14Q4xHbeTwR-3" value="سیستم" style="swimlane;startSize=20;whiteSpace=wrap;html=1;fontSize=17;" parent="1c1d494c118603dd-1" vertex="1">
          <mxGeometry x="260" y="20" width="540" height="1080" as="geometry" />
        </mxCell>
        <mxCell id="_GKaaEnPmd_whFGMj8a_-36" style="edgeStyle=orthogonalEdgeStyle;rounded=0;orthogonalLoop=1;jettySize=auto;html=1;entryX=1;entryY=0.5;entryDx=0;entryDy=0;" edge="1" parent="bYX_rBt1W14Q4xHbeTwR-3" target="_GKaaEnPmd_whFGMj8a_-33">
          <mxGeometry relative="1" as="geometry">
            <mxPoint x="446" y="690.0769230769229" as="sourcePoint" />
            <Array as="points">
              <mxPoint x="466" y="690" />
              <mxPoint x="466" y="840" />
            </Array>
          </mxGeometry>
        </mxCell>
        <mxCell id="_GKaaEnPmd_whFGMj8a_-46" value="&lt;font style=&quot;font-size: 21px;&quot;&gt;درخواست وارد کردن شناسه سفارش&lt;/font&gt;" style="html=1;align=center;verticalAlign=middle;rounded=1;absoluteArcSize=1;arcSize=10;dashed=0;whiteSpace=wrap;" vertex="1" parent="bYX_rBt1W14Q4xHbeTwR-3">
          <mxGeometry x="200" y="120" width="140" height="70" as="geometry" />
        </mxCell>
        <mxCell id="_GKaaEnPmd_whFGMj8a_-53" style="edgeStyle=orthogonalEdgeStyle;rounded=0;orthogonalLoop=1;jettySize=auto;html=1;entryX=0.5;entryY=0;entryDx=0;entryDy=0;" edge="1" parent="bYX_rBt1W14Q4xHbeTwR-3" source="_GKaaEnPmd_whFGMj8a_-50" target="_GKaaEnPmd_whFGMj8a_-52">
          <mxGeometry relative="1" as="geometry" />
        </mxCell>
        <mxCell id="_GKaaEnPmd_whFGMj8a_-50" value="&lt;font style=&quot;font-size: 21px;&quot;&gt;جستجو در پایگاه داده&lt;/font&gt;" style="html=1;align=center;verticalAlign=middle;rounded=1;absoluteArcSize=1;arcSize=10;dashed=0;whiteSpace=wrap;" vertex="1" parent="bYX_rBt1W14Q4xHbeTwR-3">
          <mxGeometry x="200" y="330" width="140" height="70" as="geometry" />
        </mxCell>
        <mxCell id="_GKaaEnPmd_whFGMj8a_-56" style="edgeStyle=orthogonalEdgeStyle;rounded=0;orthogonalLoop=1;jettySize=auto;html=1;entryX=0.5;entryY=0;entryDx=0;entryDy=0;" edge="1" parent="bYX_rBt1W14Q4xHbeTwR-3" source="_GKaaEnPmd_whFGMj8a_-52" target="_GKaaEnPmd_whFGMj8a_-55">
          <mxGeometry relative="1" as="geometry" />
        </mxCell>
        <mxCell id="_GKaaEnPmd_whFGMj8a_-59" value="&lt;span style=&quot;font-size: 23px;&quot;&gt;کد نامعتبر&lt;/span&gt;" style="edgeLabel;html=1;align=center;verticalAlign=middle;resizable=0;points=[];" vertex="1" connectable="0" parent="_GKaaEnPmd_whFGMj8a_-56">
          <mxGeometry x="0.2939" y="-4" relative="1" as="geometry">
            <mxPoint x="24" y="-54" as="offset" />
          </mxGeometry>
        </mxCell>
        <mxCell id="_GKaaEnPmd_whFGMj8a_-57" style="edgeStyle=orthogonalEdgeStyle;rounded=0;orthogonalLoop=1;jettySize=auto;html=1;entryX=0.5;entryY=0;entryDx=0;entryDy=0;" edge="1" parent="bYX_rBt1W14Q4xHbeTwR-3" source="_GKaaEnPmd_whFGMj8a_-52" target="_GKaaEnPmd_whFGMj8a_-54">
          <mxGeometry relative="1" as="geometry" />
        </mxCell>
        <mxCell id="_GKaaEnPmd_whFGMj8a_-58" value="&lt;font style=&quot;font-size: 23px;&quot;&gt;کد معتبر&lt;/font&gt;" style="edgeLabel;html=1;align=center;verticalAlign=middle;resizable=0;points=[];" vertex="1" connectable="0" parent="_GKaaEnPmd_whFGMj8a_-57">
          <mxGeometry x="0.3872" y="-1" relative="1" as="geometry">
            <mxPoint x="-23" y="-59" as="offset" />
          </mxGeometry>
        </mxCell>
        <mxCell id="_GKaaEnPmd_whFGMj8a_-52" value="" style="rhombus;whiteSpace=wrap;html=1;" vertex="1" parent="bYX_rBt1W14Q4xHbeTwR-3">
          <mxGeometry x="230" y="450" width="80" height="80" as="geometry" />
        </mxCell>
        <mxCell id="_GKaaEnPmd_whFGMj8a_-62" style="edgeStyle=orthogonalEdgeStyle;rounded=0;orthogonalLoop=1;jettySize=auto;html=1;entryX=0;entryY=0.5;entryDx=0;entryDy=0;" edge="1" parent="bYX_rBt1W14Q4xHbeTwR-3" source="_GKaaEnPmd_whFGMj8a_-54" target="_GKaaEnPmd_whFGMj8a_-60">
          <mxGeometry relative="1" as="geometry">
            <Array as="points">
              <mxPoint x="130" y="750" />
            </Array>
          </mxGeometry>
        </mxCell>
        <mxCell id="_GKaaEnPmd_whFGMj8a_-54" value="&lt;font style=&quot;font-size: 21px;&quot;&gt;نمایش جزئیات سفارش&lt;/font&gt;" style="html=1;align=center;verticalAlign=middle;rounded=1;absoluteArcSize=1;arcSize=10;dashed=0;whiteSpace=wrap;" vertex="1" parent="bYX_rBt1W14Q4xHbeTwR-3">
          <mxGeometry x="60" y="590" width="140" height="70" as="geometry" />
        </mxCell>
        <mxCell id="_GKaaEnPmd_whFGMj8a_-61" style="edgeStyle=orthogonalEdgeStyle;rounded=0;orthogonalLoop=1;jettySize=auto;html=1;entryX=1;entryY=0.5;entryDx=0;entryDy=0;" edge="1" parent="bYX_rBt1W14Q4xHbeTwR-3" source="_GKaaEnPmd_whFGMj8a_-55" target="_GKaaEnPmd_whFGMj8a_-60">
          <mxGeometry relative="1" as="geometry">
            <Array as="points">
              <mxPoint x="396" y="750" />
            </Array>
          </mxGeometry>
        </mxCell>
        <mxCell id="_GKaaEnPmd_whFGMj8a_-55" value="&lt;span style=&quot;font-size: 21px;&quot;&gt;نمایش پیام خطای عدم وجود سفارش&lt;/span&gt;" style="html=1;align=center;verticalAlign=middle;rounded=1;absoluteArcSize=1;arcSize=10;dashed=0;whiteSpace=wrap;" vertex="1" parent="bYX_rBt1W14Q4xHbeTwR-3">
          <mxGeometry x="326" y="590" width="140" height="70" as="geometry" />
        </mxCell>
        <mxCell id="_GKaaEnPmd_whFGMj8a_-64" style="edgeStyle=orthogonalEdgeStyle;rounded=0;orthogonalLoop=1;jettySize=auto;html=1;entryX=0.5;entryY=0;entryDx=0;entryDy=0;" edge="1" parent="bYX_rBt1W14Q4xHbeTwR-3" source="_GKaaEnPmd_whFGMj8a_-60" target="_GKaaEnPmd_whFGMj8a_-63">
          <mxGeometry relative="1" as="geometry" />
        </mxCell>
        <mxCell id="_GKaaEnPmd_whFGMj8a_-60" value="" style="rhombus;whiteSpace=wrap;html=1;" vertex="1" parent="bYX_rBt1W14Q4xHbeTwR-3">
          <mxGeometry x="230" y="710" width="80" height="80" as="geometry" />
        </mxCell>
        <mxCell id="_GKaaEnPmd_whFGMj8a_-63" value="" style="ellipse;html=1;shape=endState;fillColor=strokeColor;" vertex="1" parent="bYX_rBt1W14Q4xHbeTwR-3">
          <mxGeometry x="243" y="970" width="54" height="50" as="geometry" />
        </mxCell>
        <mxCell id="_GKaaEnPmd_whFGMj8a_-47" style="edgeStyle=orthogonalEdgeStyle;rounded=0;orthogonalLoop=1;jettySize=auto;html=1;entryX=0;entryY=0.5;entryDx=0;entryDy=0;" edge="1" parent="1c1d494c118603dd-1" source="_GKaaEnPmd_whFGMj8a_-44" target="_GKaaEnPmd_whFGMj8a_-46">
          <mxGeometry relative="1" as="geometry" />
        </mxCell>
        <mxCell id="_GKaaEnPmd_whFGMj8a_-49" style="edgeStyle=orthogonalEdgeStyle;rounded=0;orthogonalLoop=1;jettySize=auto;html=1;entryX=1;entryY=0.5;entryDx=0;entryDy=0;" edge="1" parent="1c1d494c118603dd-1" source="_GKaaEnPmd_whFGMj8a_-46" target="_GKaaEnPmd_whFGMj8a_-48">
          <mxGeometry relative="1" as="geometry">
            <Array as="points">
              <mxPoint x="530" y="295" />
            </Array>
          </mxGeometry>
        </mxCell>
        <mxCell id="_GKaaEnPmd_whFGMj8a_-51" style="edgeStyle=orthogonalEdgeStyle;rounded=0;orthogonalLoop=1;jettySize=auto;html=1;entryX=0;entryY=0.5;entryDx=0;entryDy=0;" edge="1" parent="1c1d494c118603dd-1" source="_GKaaEnPmd_whFGMj8a_-48" target="_GKaaEnPmd_whFGMj8a_-50">
          <mxGeometry relative="1" as="geometry">
            <Array as="points">
              <mxPoint x="130" y="385" />
            </Array>
          </mxGeometry>
        </mxCell>
      </root>
    </mxGraphModel>
  </diagram>
</mxfile>
